<?xml version="1.0" standalone="no"?>
<!DOCTYPE svg PUBLIC "-//W3C//DTD SVG 20010904//EN"
 "http://www.w3.org/TR/2001/REC-SVG-20010904/DTD/svg10.dtd">
<svg version="1.0"
    xmlns="http://www.w3.org/2000/svg" width="1231.000000pt" height="219.000000pt" viewBox="0 0 1231.000000 219.000000" preserveAspectRatio="xMidYMid meet">
    <metadata>
Created by potrace 1.16, written by Peter Selinger 2001-2019
    </metadata>
    <g transform="translate(0.000000,219.000000) scale(0.100000,-0.100000)" fill="#000000" stroke="none">
        <path d="M3070 1060 l0 -1060 1075 0 1075 0 0 1060 0 1060 -1075 0 -1075 0 0
-1060z m600 500 l0 -40 -47 -1 c-89 -1 -92 38 37 -485 65 -258 119 -477 122
-485 3 -8 17 27 32 76 51 167 217 694 288 913 l20 63 46 -3 46 -3 42 -130 c23
-71 85 -267 139 -435 54 -168 109 -347 123 -398 14 -51 28 -89 32 -85 9 10 80
289 170 662 54 227 67 297 58 303 -7 4 -37 8 -65 8 l-53 0 0 40 0 40 159 0
c151 0 160 -1 166 -20 12 -39 -3 -59 -48 -62 -51 -4 -27 70 -199 -613 l-133
-530 -53 -3 c-28 -2 -52 -1 -52 3 0 3 -48 157 -106 343 -59 185 -131 418 -162
517 -30 99 -58 183 -61 188 -4 4 -44 -111 -89 -255 -46 -145 -120 -382 -166
-528 l-84 -265 -49 -3 -48 -3 -57 218 c-31 120 -98 379 -149 575 l-92 357 -46
3 c-39 3 -46 6 -49 26 -7 51 -4 52 168 52 l160 0 0 -40z"/>
        <path d="M1509 1685 c0 -3 0 -35 -1 -72 l0 -68 53 0 54 0 3 73 3 72 -56 0
c-30 0 -55 -2 -56 -5z"/>
        <path d="M6240 1636 l0 -44 70 -7 70 -7 -2 -562 -3 -561 -25 -3 c-112 -11
-110 -11 -110 -48 l0 -34 190 0 190 0 0 34 c0 37 2 37 -110 48 l-25 3 -3 613
-2 612 -120 0 -120 0 0 -44z"/>
        <path d="M7290 1645 c0 -38 8 -43 90 -47 l45 -3 0 -570 0 -570 -25 -3 c-112
-11 -110 -11 -110 -48 l0 -34 190 0 190 0 0 34 c0 37 2 37 -110 48 -25 3 -25
5 -28 102 l-3 98 85 86 c47 48 87 84 89 82 13 -16 254 -337 261 -348 11 -19
-10 -32 -51 -32 -31 0 -33 -2 -33 -35 l0 -35 168 2 167 3 3 27 c3 22 -2 30
-23 38 -14 5 -41 10 -59 10 -30 0 -42 13 -195 210 -89 116 -164 216 -166 223
-3 7 60 78 139 159 143 146 144 147 193 150 l48 3 3 43 3 42 -160 0 -161 0 0
-45 0 -45 45 0 c25 0 45 -3 45 -7 0 -10 -383 -393 -392 -393 -5 0 -8 200 -8
445 l0 445 -120 0 -120 0 0 -35z"/>
        <path d="M10872 1643 c3 -36 5 -38 38 -41 19 -1 50 -5 68 -8 l32 -5 0 -219 c0
-121 -2 -220 -5 -220 -3 0 -21 18 -41 40 -20 22 -61 52 -92 67 -48 23 -70 27
-142 28 -73 0 -93 -4 -142 -28 -139 -68 -208 -215 -208 -446 0 -170 31 -269
111 -356 61 -66 124 -90 239 -90 89 0 99 2 158 34 35 19 76 50 91 68 l28 34 6
-38 c4 -21 7 -50 7 -65 l0 -28 115 0 115 0 0 39 0 40 -70 7 -70 7 0 608 0 609
-121 0 -120 0 3 -37z m-29 -457 c54 -20 104 -61 137 -114 l30 -47 0 -212 0
-211 -33 -44 c-61 -79 -124 -108 -237 -108 -81 0 -134 23 -181 78 -52 60 -70
121 -76 248 -11 221 54 367 182 412 42 15 133 14 178 -2z"/>
        <path d="M258 1594 c-13 -12 -9 -64 5 -69 6 -2 38 -6 70 -10 l57 -6 0 -530 0
-529 -47 0 c-79 0 -93 -7 -93 -46 l0 -34 273 0 c369 0 432 17 563 145 232 228
232 712 -1 938 -51 50 -120 93 -191 119 -54 20 -82 22 -344 26 -157 2 -288 0
-292 -4z m633 -115 c110 -52 200 -161 242 -294 31 -101 31 -299 0 -400 -40
-129 -140 -252 -241 -298 -40 -18 -72 -22 -220 -27 -96 -3 -176 -3 -178 -1 -2
2 -4 240 -4 528 l0 525 173 -4 c161 -3 175 -5 228 -29z"/>
        <path d="M6860 1400 l0 -119 -77 -3 -78 -3 0 -40 0 -40 78 -3 77 -3 0 -323 c0
-372 4 -400 69 -459 28 -25 53 -38 86 -43 50 -7 175 2 187 14 4 4 4 21 -1 37
l-8 30 -74 -3 c-69 -4 -78 -2 -107 23 -17 14 -36 43 -42 63 -6 22 -10 167 -10
350 l0 312 105 0 105 0 0 45 0 45 -105 0 -105 0 0 120 0 120 -50 0 -50 0 0
-120z"/>
        <path d="M2179 1277 c-133 -38 -246 -166 -278 -315 -16 -75 -14 -228 4 -297
33 -126 106 -217 215 -269 60 -29 73 -31 175 -31 104 0 114 2 182 34 87 41
119 71 104 98 -27 47 -26 46 -70 15 -95 -69 -250 -88 -344 -43 -97 47 -161
154 -173 291 l-7 70 322 0 321 0 0 48 c0 244 -124 396 -333 408 -42 2 -91 -1
-118 -9z m207 -101 c80 -37 134 -122 134 -211 l0 -45 -261 0 -261 0 6 35 c36
192 218 297 382 221z"/>
        <path d="M5694 1281 c-60 -15 -129 -56 -176 -102 -87 -87 -128 -202 -128 -359
0 -209 77 -351 230 -424 61 -29 73 -31 175 -31 104 0 114 2 182 34 87 41 119
71 104 98 -27 47 -26 46 -70 15 -95 -69 -250 -88 -344 -43 -97 47 -161 154
-173 291 l-7 70 322 0 321 0 0 48 c0 190 -69 316 -206 379 -59 27 -174 39
-230 24z m186 -102 c25 -11 56 -30 69 -42 37 -34 71 -115 71 -169 l0 -48 -261
0 -261 0 6 35 c19 99 81 184 161 221 65 31 152 32 215 3z"/>
        <path d="M9737 1280 c-65 -17 -113 -47 -165 -106 l-51 -57 -3 79 -3 79 -113 3
-113 3 3 -43 3 -43 60 -5 60 -5 3 -367 2 -368 -34 0 c-18 0 -48 -3 -65 -6 -27
-6 -31 -10 -31 -40 l0 -34 185 0 185 0 0 34 c0 30 -4 34 -31 40 -17 3 -47 6
-65 6 l-34 0 0 273 c0 265 1 273 24 323 32 69 88 121 149 139 96 28 184 15
243 -37 66 -58 68 -70 72 -400 l3 -298 -33 0 c-18 0 -50 -3 -70 -6 -35 -6 -38
-9 -38 -40 l0 -34 190 0 190 0 0 34 0 35 -57 6 c-32 4 -63 8 -70 10 -8 3 -13
84 -16 302 -2 196 -8 311 -15 335 -39 116 -130 185 -257 193 -39 2 -87 0 -108
-5z"/>
        <path d="M11646 1274 c-148 -46 -254 -185 -278 -368 -31 -232 60 -436 228
-513 135 -62 334 -34 452 64 l22 18 -19 32 -20 32 -58 -35 c-74 -45 -122 -58
-208 -58 -164 -1 -282 122 -293 305 l-5 79 318 0 318 0 -5 98 c-6 104 -22 159
-69 228 -71 105 -247 159 -383 118z m187 -85 c48 -13 112 -70 139 -122 11 -22
22 -64 25 -93 l6 -54 -262 0 -261 0 0 23 c0 82 96 214 175 242 48 17 126 19
178 4z"/>
        <path d="M1384 1266 c-3 -8 -4 -27 -2 -43 3 -24 8 -28 38 -31 19 -1 50 -5 68
-8 l32 -5 -2 -362 -3 -362 -25 -3 c-112 -11 -110 -11 -110 -48 l0 -34 190 0
190 0 0 29 c0 37 -8 42 -81 48 l-59 6 -2 411 -3 411 -113 3 c-91 2 -113 0
-118 -12z"/>
        <path d="M8267 1273 c-4 -3 -7 -21 -7 -38 0 -32 1 -32 60 -39 l60 -7 0 -278
c0 -254 2 -285 21 -346 37 -121 127 -194 250 -203 122 -8 228 35 289 119 l30
42 0 -61 c0 -95 -3 -92 117 -92 l104 0 -3 38 c-3 36 -4 37 -53 46 -27 4 -56
10 -62 12 -10 3 -13 93 -13 409 l0 406 -112 -3 -113 -3 0 -35 0 -35 63 -8 62
-9 0 -287 0 -287 -29 -46 c-54 -85 -120 -118 -234 -118 -57 0 -78 5 -112 25
-95 55 -105 101 -105 492 l0 313 -103 0 c-57 0 -107 -3 -110 -7z"/>
    </g>
</svg>
