<svg xmlns="http://www.w3.org/2000/svg" version="1.0" width="100" height="100" viewBox="" preserveAspectRatio="xMidYMid meet">
    <g transform="translate(2.000000,50.000000) scale(0.045,-0.04500000)" fill="#011936" stroke="none">
        <path d="M0 0 l0 -1060 1075 0 1075 0 0 1060 0 1060 -1075 0 -1075 0 0 -1060z m600 500 l0 -40 -47 -1 c-89 -1 -92 38 37 -485 65 -258 119 -477 122 -485 3 -8 17 27 32 76 51 167 217 694 288 913 l20 63 46 -3 46 -3 42 -130 c23 -71 85 -267 139 -435 54 -168 109 -347 123 -398 14 -51 28 -89 32 -85 9 10 80 289 170 662 54 227 67 297 58 303 -7 4 -37 8 -65 8 l-53 0 0 40 0 40 159 0 c151 0 160 -1 166 -20 12 -39 -3 -59 -48 -62 -51 -4 -27 70 -199 -613 l-133 -530 -53 -3 c-28 -2 -52 -1 -52 3 0 3 -48 157 -106 343 -59 185 -131 418 -162 517 -30 99 -58 183 -61 188 -4 4 -44 -111 -89 -255 -46 -145 -120 -382 -166 -528 l-84 -265 -49 -3 -48 -3 -57 218 c-31 120 -98 379 -149 575 l-92 357 -46 3 c-39 3 -46 6 -49 26 -7 51 -4 52 168 52 l160 0 0 -40z"/>
    </g>
</svg>

